<?xml version="1.0" standalone="no"?>
<!DOCTYPE svg PUBLIC "-//W3C//DTD SVG 20010904//EN"
 "http://www.w3.org/TR/2001/REC-SVG-20010904/DTD/svg10.dtd">
<svg version="1.0" xmlns="http://www.w3.org/2000/svg"
 width="300.000000pt" height="296.000000pt" viewBox="0 0 300.000000 296.000000"
 preserveAspectRatio="xMidYMid meet">

<g transform="translate(0.000000,296.000000) scale(0.100000,-0.100000)"
fill="#000000" stroke="none">
<path d="M106 2950 c-41 -13 -84 -58 -96 -99 -6 -23 -10 -524 -10 -1376 0
-1300 1 -1341 20 -1382 11 -25 33 -51 52 -63 32 -20 48 -20 811 -20 l777 0 0
600 0 600 -190 0 -190 0 0 185 0 185 190 0 190 0 0 228 c0 125 5 256 11 292
21 134 112 251 246 317 l77 38 253 3 253 3 -2 -168 -3 -168 -130 -5 c-121 -5
-134 -7 -184 -35 -29 -16 -65 -45 -80 -64 -26 -34 -26 -36 -29 -238 l-3 -203
195 0 196 0 0 -185 0 -185 -195 0 -195 0 0 -600 0 -600 413 0 c396 0 413 1
445 20 20 12 41 38 53 65 19 43 19 75 17 1404 -3 1355 -3 1360 -24 1387 -11
15 -33 37 -48 48 -27 21 -31 21 -1409 23 -765 1 -1395 -2 -1411 -7z"/>
</g>
</svg>
