<?xml version="1.0" standalone="no"?>
<!DOCTYPE svg PUBLIC "-//W3C//DTD SVG 20010904//EN"
 "http://www.w3.org/TR/2001/REC-SVG-20010904/DTD/svg10.dtd">
<svg version="1.0" xmlns="http://www.w3.org/2000/svg"
 width="300.000000pt" height="228.000000pt" viewBox="0 0 300.000000 228.000000"
 preserveAspectRatio="xMidYMid meet">

<g transform="translate(0.000000,228.000000) scale(0.100000,-0.100000)"
fill="#000000" stroke="none">
<path d="M136 2255 c-55 -14 -92 -45 -117 -100 -18 -38 -19 -88 -19 -1010 0
-637 4 -983 10 -1007 14 -48 55 -97 97 -114 21 -9 73 -14 148 -14 l115 0 1
813 c0 446 3 828 7 848 l7 35 554 -403 c339 -246 559 -399 565 -394 89 67
1105 801 1110 801 3 0 6 -385 6 -856 l0 -856 118 4 c137 4 179 19 220 81 l27
41 3 1000 c1 551 0 1011 -3 1023 -7 30 -61 90 -96 109 -44 22 -137 18 -180 -9
-20 -12 -298 -213 -618 -447 -320 -234 -590 -425 -599 -424 -9 0 -273 187
-587 415 -314 228 -584 424 -602 437 -44 31 -109 42 -167 27z"/>
</g>
</svg>
